<svg id="Layer_1" data-name="Layer 1" xmlns="http://www.w3.org/2000/svg" viewBox="0 0 235.23 53.86"><defs><style>.cls-1{fill:#444;}.cls-2{fill:#105ab2;}.cls-3{fill:#afaeae;}</style></defs><title>Лого для блога</title><path class="cls-1" d="M32.56,44.21c-.43-2.16-1.1-5.65-1.47-7.75-.59-3.31-1.1-6.53-1.55-9.63A2.15,2.15,0,0,0,29,25.55l-1.12-1.1.08.1c-.59-.7-1.65-.56-2.74.51-2.41,2.34-4.72,4.73-6.9,7.15-1.32,1.48-3.39,3.89-4.58,5.36-1.83,2.26-3.5,4.47-5,6.64a2.68,2.68,0,0,0-.52,1.94.5.5,0,0,0,0,.12,1.73,1.73,0,0,0,.31.69l-.06-.06.8,1.19a2,2,0,0,0,.78.65c2.06.95,4.31,1.93,6.74,2.91,1.6.65,4.34,1.7,6.1,2.34,2.91,1.07,6,2.12,9.11,3.14,2,.65,3.27-.53,2.78-2.63C34,51.1,33.26,47.66,32.56,44.21ZM24.25,31.5h0Zm-.21,0h0Zm-.23.09,0,0Zm-.24.16,0,0ZM13,44a1.8,1.8,0,0,1,.33-.6A1.8,1.8,0,0,0,13,44Zm-.06.28a.8.8,0,0,1,0-.15Zm15.2-19.35a2.7,2.7,0,0,1,.21.77A2.79,2.79,0,0,0,28.18,24.92Zm0,0a1.48,1.48,0,0,0-.21-.32A1.48,1.48,0,0,1,28.17,24.9Zm-.46,23c.26,1.22-.43,1.92-1.53,1.56q-2.57-.84-5-1.7c-1-.34-2.56-.9-3.49-1.24L14,45.15a1.89,1.89,0,0,1,.3-.53c1.06-1.31,2.17-2.65,3.33-4,.74-.86,2-2.27,2.78-3.14q1.93-2.13,4-4.24a1.86,1.86,0,0,1,.68-.48c.23,1.61.48,3.25.74,4.9.2,1.2.54,3.17.77,4.38C26.92,44,27.31,46,27.71,47.91Zm-3.27-16.4h0ZM8.68,47.11l.17.17Z" transform="translate(-8.19 -3.45)"/><path class="cls-2" d="M65.14,26c-.86-3.05-1.77-6-2.7-8.73-.57-1.67-1.5-4.24-2.09-5.74-.88-2.26-1.78-4.34-2.68-6.23A1.87,1.87,0,0,0,57,4.53l-1.2-.77.09.07a2.44,2.44,0,0,0-2.52-.06q-3.11,1.64-6.44,3.78c-1.45.94-3.88,2.59-5.39,3.69q-3.49,2.55-7,5.48L34,17.1A2.32,2.32,0,0,0,33,19v0a1.16,1.16,0,0,0,.41.7l0,0,1.18,1a2.54,2.54,0,0,0,1.18.52c3.13.64,6.34,1.37,9.59,2.18,2.07.52,5.46,1.41,7.53,2,3.31.94,6.57,1.95,9.77,3C64.54,29.07,65.69,28,65.14,26ZM53.68,7.55a1.34,1.34,0,0,0-.35,0A1.34,1.34,0,0,1,53.68,7.55ZM41.14,15.82l-.28.26A3.71,3.71,0,0,1,41.14,15.82Zm-.56.74s0-.09.05-.14S40.6,16.52,40.58,16.56Zm.1-.23a1.3,1.3,0,0,1,.15-.2A1.3,1.3,0,0,0,40.68,16.33Zm-.12.39h0s0,0,0,0Zm3.22,5.05c-1.57-.38-3.13-.73-4.67-1.07C40.65,21,42.21,21.39,43.78,21.77Zm17.06-6.4-.41-1.15c.25.69.49,1.36.68,1.93C61,15.91,60.93,15.64,60.84,15.37Zm-.46-1.29,0-.08ZM56.19,4.14,56,4Zm-.51,7.53c.31.87.8,2.35,1.1,3.28q.75,2.31,1.48,4.77c.32,1-.38,1.63-1.54,1.28-1.85-.55-3.72-1.08-5.6-1.57-1.17-.31-3.08-.8-4.24-1.07-1.64-.39-3.26-.76-4.87-1.1a2.11,2.11,0,0,1,.39-.41c1.46-1.16,2.9-2.26,4.33-3.32.88-.65,2.28-1.66,3.14-2.26q2-1.39,3.89-2.62a1.63,1.63,0,0,1,.73-.25c.33.87.66,1.76,1,2.68C55.54,11.28,55.61,11.48,55.68,11.67ZM52.51,7.76a1.88,1.88,0,0,1,.38-.18A1.88,1.88,0,0,0,52.51,7.76ZM53,7.57a1.07,1.07,0,0,1,.35-.06A1.07,1.07,0,0,0,53,7.57Zm.78,0a.66.66,0,0,1,.24.11A.66.66,0,0,0,53.73,7.57Zm-15.16,13,.38.09c-1.56-.34-3.1-.65-4.62-1C35.72,20,37.14,20.28,38.57,20.58Zm-5-.74-.05,0Zm.26.13h0Z" transform="translate(-8.19 -3.45)"/><path class="cls-3" d="M63.7,32.29a1.84,1.84,0,0,0-.49-.85l-1.36-1.36.06.08a3.1,3.1,0,0,0-1.35-.81q-4.87-1.55-9.89-2.94c-2.09-.57-5.5-1.46-7.56-2L42,24.17c-2.84-.68-5.65-1.31-8.37-1.85A2.25,2.25,0,0,0,30.68,25q.67,4.59,1.54,9.5c.37,2.09,1,5.57,1.44,7.72.69,3.46,1.42,6.93,2.2,10.36l.06.24a2.86,2.86,0,0,0,.79,1.34l-.1-.08L38,55.41c.78.76,2,.68,3.07-.35q4-3.68,8.05-7.5l6.1-5.76c2.62-2.51,5.17-4.95,7.62-7.32A2.32,2.32,0,0,0,63.7,32.29Zm-1.51-1.75a1.88,1.88,0,0,0-.16-.23A1.88,1.88,0,0,1,62.19,30.54ZM39.12,45.46s0,0,0,0h0A.43.43,0,0,0,39.12,45.46Zm1.25.68c-.38-1.79-.76-3.57-1.12-5.34-.27-1.26-.68-3.3-.93-4.54-.39-2-.76-3.9-1.13-5.81-.22-1.17.56-1.88,1.73-1.58,1.91.47,3.84,1,5.77,1.49l4.46,1.22q2.64.75,5.26,1.53a2,2,0,0,1-.44.58l-2.73,2.53L49.38,38c-1,.9-2.56,2.38-3.53,3.3l-4.66,4.39A1.88,1.88,0,0,1,40.37,46.14ZM53.61,31.92a2.15,2.15,0,0,1,.38.15A2.15,2.15,0,0,0,53.61,31.92Zm.49.21a1.46,1.46,0,0,1,.24.17A1.46,1.46,0,0,0,54.1,32.13ZM43.16,28.61l.48.12Zm.59.15.15,0Zm8.49,12.52c-1.56,1.47-3.42,3.24-4.7,4.43Zm-5.6-11.74.94.25ZM37.09,54.36a2.14,2.14,0,0,1-.32-.2A2.14,2.14,0,0,0,37.09,54.36Zm.57.16-.13,0Zm-.31-.06-.15-.05Zm.64.07.08,0Zm1.3-.54-.08,0Zm-.45.28h0Zm-.4.16-.07,0Z" transform="translate(-8.19 -3.45)"/><path class="cls-2" d="M83.83,33.15c.47,2.08,2,3,4.35,3s3.41-.94,3.41-2.46c0-1.68-1-2.41-4.53-3.23-5.63-1.32-7-3.37-7-6.16,0-3.61,2.69-6.06,7.59-6.06,5.49,0,7.68,2.95,8,6H91.1c-.22-1.27-.92-2.66-3.59-2.66-1.81,0-2.91.75-2.91,2.22s.88,2,4.22,2.8c6,1.42,7.34,3.65,7.34,6.57,0,3.78-2.86,6.37-8.33,6.37-5.25,0-8-2.59-8.51-6.36Z" transform="translate(-8.19 -3.45)"/><path class="cls-2" d="M99.3,17.32h4.3v3.83H99.3Zm0,6.37h4.3V39.21H99.3Z" transform="translate(-8.19 -3.45)"/><path class="cls-2" d="M107.46,27.69c0-1.34,0-2.67,0-4h4.11c.06.38.15,1.24.17,1.85A4.85,4.85,0,0,1,116,23.33a4.09,4.09,0,0,1,4,2.36,5.39,5.39,0,0,1,4.79-2.36c2.7,0,4.92,1.66,4.92,5.7V39.21h-4.2V29.55c0-1.4-.51-2.77-2.27-2.77s-2.53,1.18-2.53,3.56v8.87h-4.22v-9.5c0-1.61-.4-2.91-2.23-2.91s-2.58,1.08-2.58,3.74v8.67h-4.25Z" transform="translate(-8.19 -3.45)"/><path class="cls-2" d="M137.87,37.84v7.32H133.6V27.43c0-1.26,0-2.5,0-3.74h4.17a17.61,17.61,0,0,1,.13,1.93,4.93,4.93,0,0,1,4.52-2.29c3.49,0,6.18,2.91,6.18,7.73,0,5.48-3,8.51-6.77,8.51C139.61,39.57,138.47,38.75,137.87,37.84Zm6.34-6.61c0-2.85-1.15-4.46-3.2-4.46-2.44,0-3.3,1.57-3.3,4.7,0,3,.8,4.69,3.12,4.69S144.21,34.39,144.21,31.23Z" transform="translate(-8.19 -3.45)"/><path class="cls-2" d="M151.53,39.21V17.32h4.3V39.21Z" transform="translate(-8.19 -3.45)"/><path class="cls-2" d="M163.11,32.37c0,1.94,1,3.84,3.12,3.84a2.45,2.45,0,0,0,2.71-1.66h4.3c-.55,1.9-2.24,5-7.12,5-5.12,0-7.34-3.82-7.34-7.89,0-4.87,2.5-8.35,7.49-8.35,5.33,0,7.15,3.86,7.15,7.73a8.94,8.94,0,0,1-.06,1.31Zm6-2.64c0-1.81-.75-3.33-2.85-3.33s-2.88,1.42-3.06,3.33Z" transform="translate(-8.19 -3.45)"/><path class="cls-2" d="M184.14,18.53h9c5,0,6.89,2.61,6.89,5.29a4.71,4.71,0,0,1-2.63,4.49A4.92,4.92,0,0,1,200.66,33c0,3.54-2.78,6.19-7.18,6.19h-9.34Zm8.53,8.16c2.12,0,3-1,3-2.41S194.52,22,192.79,22h-4.26v4.7Zm-4.14,9.07h4c2.41,0,3.51-1,3.51-2.88,0-1.67-1.08-2.73-3.54-2.73h-4Z" transform="translate(-8.19 -3.45)"/><path class="cls-2" d="M203.58,39.21V17.32h4.3V39.21Z" transform="translate(-8.19 -3.45)"/><path class="cls-2" d="M226.19,31.42c0,4.7-2.82,8.15-7.73,8.15s-7.63-3.43-7.63-8.07,2.9-8.17,7.83-8.17C223.23,23.33,226.19,26.55,226.19,31.42Zm-11,0c0,3,1.29,4.76,3.36,4.76s3.27-1.77,3.27-4.73c0-3.25-1.19-4.79-3.33-4.79S215.19,28.17,215.19,31.45Z" transform="translate(-8.19 -3.45)"/><path class="cls-2" d="M243.39,37.32c0,5-1.84,8.14-7.72,8.14-5.67,0-6.79-3.17-6.94-4.92h4.38c.3,1.07,1.09,1.8,2.75,1.8,2.79,0,3.31-1.71,3.31-4.75v-.74A4.59,4.59,0,0,1,234.8,39c-4.09,0-6.42-3.35-6.42-7.53,0-4.85,2.9-8.17,6.79-8.17,2.66,0,3.77,1.25,4,2,0-.42.14-1.37.17-1.62h4.08c0,1.38,0,3,0,4.45Zm-10.6-6c0,2.67,1.34,4.25,3.24,4.25,2.59,0,3.28-1.78,3.28-4.38s-.46-4.41-3.19-4.41C234.26,26.77,232.79,28.21,232.79,31.31Z" transform="translate(-8.19 -3.45)"/></svg>